<svg width="19" height="20" viewBox="0 0 19 20" fill="none" xmlns="http://www.w3.org/2000/svg">
<path fill-rule="evenodd" clip-rule="evenodd" d="M9.81968 0C4.84263 0 0.803284 4.48 0.803284 10C0.803284 15.52 4.84263 20 9.81968 20C14.7967 20 18.8361 15.52 18.8361 10C18.8361 4.48 14.7967 0 9.81968 0ZM5.3746 16.28C5.76231 15.38 8.1246 14.5 9.81968 14.5C11.5148 14.5 13.8861 15.38 14.2648 16.28C13.0385 17.36 11.4967 18 9.81968 18C8.14263 18 6.60083 17.36 5.3746 16.28ZM15.5541 14.83C14.2648 13.09 11.1361 12.5 9.81968 12.5C8.50328 12.5 5.3746 13.09 4.08525 14.83C3.16558 13.49 2.60656 11.82 2.60656 10C2.60656 5.59 5.84345 2 9.81968 2C13.7959 2 17.0328 5.59 17.0328 10C17.0328 11.82 16.4738 13.49 15.5541 14.83ZM9.81968 4C8.0705 4 6.66394 5.56 6.66394 7.5C6.66394 9.44 8.0705 11 9.81968 11C11.5689 11 12.9754 9.44 12.9754 7.5C12.9754 5.56 11.5689 4 9.81968 4ZM9.81968 9C9.07132 9 8.46722 8.33 8.46722 7.5C8.46722 6.67 9.07132 6 9.81968 6C10.568 6 11.1721 6.67 11.1721 7.5C11.1721 8.33 10.568 9 9.81968 9Z" fill="white"/>
</svg>
