<svg width="108" height="24" viewBox="0 0 108 24" fill="none" xmlns="http://www.w3.org/2000/svg">
<g clip-path="url(#clip0)">
<path d="M28.608 6.984C27.8827 7.02667 27.36 7.112 27.04 7.24C26.72 7.368 26.496 7.61333 26.368 7.976C26.2613 8.33867 26.208 8.92533 26.208 9.736V25.608C26.208 26.4187 26.2613 27.0053 26.368 27.368C26.496 27.7307 26.72 27.976 27.04 28.104C27.3813 28.232 27.904 28.3173 28.608 28.36V29C27.4347 28.936 25.76 28.904 23.584 28.904C21.3013 28.904 19.616 28.936 18.528 29V28.36C19.296 28.3173 19.8507 28.232 20.192 28.104C20.5547 27.976 20.8 27.7307 20.928 27.368C21.056 27.0053 21.12 26.4187 21.12 25.608V8.872L13.408 29.032H12.896L4.256 8.424V23.752C4.256 25.0107 4.32 25.9387 4.448 26.536C4.576 27.112 4.85333 27.5387 5.28 27.816C5.70667 28.072 6.4 28.2533 7.36 28.36V29C6.528 28.936 5.376 28.904 3.904 28.904C2.73067 28.904 1.80267 28.936 1.12 29V28.36C1.824 28.2533 2.336 28.072 2.656 27.816C2.99733 27.56 3.22133 27.1547 3.328 26.6C3.456 26.0453 3.52 25.224 3.52 24.136V9.736C3.52 8.92533 3.456 8.33867 3.328 7.976C3.22133 7.61333 2.99733 7.368 2.656 7.24C2.336 7.112 1.824 7.02667 1.12 6.984V6.344C1.80267 6.408 2.73067 6.44 3.904 6.44C5.86667 6.44 7.552 6.408 8.96 6.344L15.424 21.928L21.312 6.44H23.584C25.76 6.44 27.4347 6.408 28.608 6.344V6.984Z" fill="white"/>
<path d="M54.176 6.984C53.472 7.09067 52.9493 7.272 52.608 7.528C52.288 7.784 52.064 8.18933 51.936 8.744C51.8293 9.29867 51.776 10.12 51.776 11.208V29.064L51.008 29.032L50.144 29.064L36.256 11.464V23.752C36.256 25.0107 36.32 25.9387 36.448 26.536C36.576 27.112 36.8533 27.5387 37.28 27.816C37.7067 28.072 38.4 28.2533 39.36 28.36V29C38.528 28.936 37.376 28.904 35.904 28.904C34.7307 28.904 33.8027 28.936 33.12 29V28.36C33.824 28.2533 34.336 28.072 34.656 27.816C34.9973 27.56 35.2213 27.1547 35.328 26.6C35.456 26.0453 35.52 25.224 35.52 24.136V9.736C35.52 8.92533 35.456 8.33867 35.328 7.976C35.2213 7.61333 34.9973 7.368 34.656 7.24C34.336 7.112 33.824 7.02667 33.12 6.984V6.344C33.8027 6.408 34.7307 6.44 35.904 6.44C36.9707 6.44 37.888 6.408 38.656 6.344L51.04 21.608V11.592C51.04 10.3333 50.976 9.416 50.848 8.84C50.72 8.24266 50.4427 7.816 50.016 7.56C49.5893 7.28267 48.896 7.09067 47.936 6.984V6.344C48.768 6.408 49.92 6.44 51.392 6.44C52.5867 6.44 53.5147 6.408 54.176 6.344V6.984Z" fill="white"/>
<path d="M78.544 6.344C78.3947 8.37067 78.32 10.184 78.32 11.784C78.32 12.7867 78.352 13.5973 78.416 14.216H77.68C77.168 11.592 76.464 9.74667 75.568 8.68C74.6933 7.61333 73.488 7.08 71.952 7.08H71.216V25.352C71.216 26.248 71.3013 26.8987 71.472 27.304C71.664 27.7093 71.984 27.9867 72.432 28.136C72.9013 28.264 73.6373 28.3387 74.64 28.36V29C71.952 28.936 69.9253 28.904 68.56 28.904C67.216 28.904 65.264 28.936 62.704 29V28.36C63.7067 28.3387 64.432 28.264 64.88 28.136C65.3493 27.9867 65.6693 27.7093 65.84 27.304C66.032 26.8987 66.128 26.248 66.128 25.352V7.08H65.424C64.4 7.08 63.5253 7.304 62.8 7.752C62.096 8.2 61.488 8.94667 60.976 9.992C60.464 11.016 60.0267 12.424 59.664 14.216H58.928C58.992 13.5973 59.024 12.7867 59.024 11.784C59.024 10.184 58.9493 8.37067 58.8 6.344C60.7413 6.408 64.0373 6.44 68.688 6.44C73.3387 6.44 76.624 6.408 78.544 6.344Z" fill="white"/>
<path d="M104.176 6.984C103.472 7.09067 102.949 7.272 102.608 7.528C102.288 7.784 102.064 8.18933 101.936 8.744C101.829 9.29867 101.776 10.12 101.776 11.208V29.064L101.008 29.032L100.144 29.064L86.256 11.464V23.752C86.256 25.0107 86.32 25.9387 86.448 26.536C86.576 27.112 86.8533 27.5387 87.28 27.816C87.7067 28.072 88.4 28.2533 89.36 28.36V29C88.528 28.936 87.376 28.904 85.904 28.904C84.7307 28.904 83.8027 28.936 83.12 29V28.36C83.824 28.2533 84.336 28.072 84.656 27.816C84.9973 27.56 85.2213 27.1547 85.328 26.6C85.456 26.0453 85.52 25.224 85.52 24.136V9.736C85.52 8.92533 85.456 8.33867 85.328 7.976C85.2213 7.61333 84.9973 7.368 84.656 7.24C84.336 7.112 83.824 7.02667 83.12 6.984V6.344C83.8027 6.408 84.7307 6.44 85.904 6.44C86.9707 6.44 87.888 6.408 88.656 6.344L101.04 21.608V11.592C101.04 10.3333 100.976 9.416 100.848 8.84C100.72 8.24266 100.443 7.816 100.016 7.56C99.5893 7.28267 98.896 7.09067 97.936 6.984V6.344C98.768 6.408 99.92 6.44 101.392 6.44C102.587 6.44 103.515 6.408 104.176 6.344V6.984Z" fill="white"/>
</g>
<defs>
<clipPath id="clip0">
<rect width="108" height="24" fill="white"/>
</clipPath>
</defs>
</svg>
